<svg xmlns="http://www.w3.org/2000/svg" xmlns:xlink="http://www.w3.org/1999/xlink" width="255.752" height="75.992" viewBox="0 0 255.752 75.992">
  <defs>
    <clipPath />
    <clipPath>
      <rect width="255.752" height="75.992" fill="#fff"/>
    </clipPath>
  </defs>
  <g transform="translate(-82 -41.36)" clip-path="url(#clip-path)">
    <g transform="translate(82 41.36)">
      <g transform="translate(0 0)" clip-path="url(#clip-path-2)">
        <path d="M127.89,44.77a5.407,5.407,0,0,0-2.591.522l-.187.086-.021.205c-.481,4.7-3.86,15.045-7.247,21.015L110.157,46.52a2.453,2.453,0,0,0-2.618-1.75,6.432,6.432,0,0,0-2.811.53l-.283.151,10.229,26.495a2.524,2.524,0,0,0,2.534,1.985,5.947,5.947,0,0,0,1.976-.342l.134-.041.071-.121c5.423-9.261,9.471-20.787,10.118-24.364a15.564,15.564,0,0,0,.371-2.792c0-.939-1.01-1.5-1.987-1.5" transform="translate(3.861 1.655)" fill="#fff"/>
        <path d="M135.76,44.77a6.407,6.407,0,0,0-2.588.439l-.211.1V71.5a2.166,2.166,0,0,0,2.393,2.435,4.981,4.981,0,0,0,2.617-.577l.182-.1V46.758c0-.742-.311-1.988-2.394-1.988" transform="translate(4.915 1.655)" fill="#fff"/>
        <path d="M190.117,44.731a3.68,3.68,0,0,0-2.383.692l-.134.11.152,18.851L175.186,46.071a2.808,2.808,0,0,0-2.374-1.3,6.869,6.869,0,0,0-2.538.436l-.221.093V71.539c0,1.615.764,2.434,2.272,2.434a5.3,5.3,0,0,0,2.816-.635l.107-.108-.23-18.683,12.728,18.089a2.755,2.755,0,0,0,2.411,1.3,5.906,5.906,0,0,0,2.478-.4l.2-.1V46.759c0-1.5-1.4-2.028-2.718-2.028" transform="translate(6.287 1.653)" fill="#fff"/>
        <path d="M162.789,58.068h-6.012c-1.933,0-2.757.63-2.757,2.11a4.392,4.392,0,0,0,.475,1.97l.094.22h6.986v3.6a7.8,7.8,0,0,1-6.747,3.964c-3.694,0-7.64-2.743-7.64-10.442,0-6.488,3.068-10.361,8.209-10.361,3.7,0,5.466.935,6.985,2.34l.137.128.184-.038a2.461,2.461,0,0,0,2.035-2.346c0-2.025-3.26-4.831-9.381-4.831-8.284,0-13.036,5.462-13.036,14.986,0,11.05,6.231,14.987,12.062,14.987a9.51,9.51,0,0,0,7.193-3.165v.69c0,1.833,1.083,2.069,2.027,2.069a3.647,3.647,0,0,0,2.232-.468l.162-.108V61.8a4.5,4.5,0,0,0-.615-2.838,3.024,3.024,0,0,0-2.591-.9" transform="translate(5.261 1.64)" fill="#fff"/>
        <path d="M244.728,44.731a3.673,3.673,0,0,0-2.382.692l-.135.11.154,18.851L229.8,46.071a2.8,2.8,0,0,0-2.374-1.3,6.891,6.891,0,0,0-2.54.436l-.22.093V71.539c0,1.615.764,2.434,2.273,2.434a5.307,5.307,0,0,0,2.814-.634l.108-.108-.23-18.684,12.729,18.09a2.756,2.756,0,0,0,2.412,1.3,5.892,5.892,0,0,0,2.476-.4l.2-.1V46.759c0-1.5-1.4-2.028-2.718-2.028" transform="translate(8.306 1.653)" fill="#fff"/>
        <path d="M208.829,69.848c-4.743,0-7.356-3.679-7.356-10.36,0-6.637,2.667-10.443,7.316-10.443s7.193,3.709,7.193,10.443c0,6.875-2.407,10.36-7.153,10.36m-.04-25.469c-7.9,0-12.427,5.462-12.427,14.986s4.544,14.987,12.467,14.987,12.306-5.323,12.306-14.987c0-9.525-4.5-14.986-12.346-14.986" transform="translate(7.259 1.64)" fill="#fff"/>
        <path d="M91.3,63.212l4-10.916,4.214,10.916ZM95.657,44.77a4.839,4.839,0,0,0-2.817.736l-.117.065L82.6,73.05l.164.164a3.174,3.174,0,0,0,2.41.717c1.376,0,2.39-.291,2.859-1.7l1.621-4.513h11.6l1.609,4.136a2.787,2.787,0,0,0,2.946,2.079,2.659,2.659,0,0,0,2.551-1.162l.082-.148L98.393,46.59a2.664,2.664,0,0,0-2.736-1.82" transform="translate(3.054 1.655)" fill="#fff"/>
        <path d="M73.8,23.338H67.793c-1.935,0-2.76.63-2.76,2.11a4.383,4.383,0,0,0,.477,1.97l.093.221h6.985v3.6A7.792,7.792,0,0,1,65.843,35.2c-3.693,0-7.639-2.744-7.639-10.443,0-6.488,3.068-10.361,8.209-10.361,3.7,0,5.465.935,6.983,2.34l.138.128.184-.038a2.461,2.461,0,0,0,2.036-2.346c0-2.025-3.26-4.831-9.38-4.831-8.285,0-13.038,5.462-13.038,14.986,0,11.05,6.231,14.987,12.062,14.987a9.5,9.5,0,0,0,7.192-3.165v.69c0,1.833,1.085,2.069,2.028,2.069a3.655,3.655,0,0,0,2.234-.468l.161-.108V27.073c0-2.477-.5-3.735-3.206-3.735" transform="translate(1.972 0.356)" fill="#fff"/>
        <path d="M152.783,10a3.676,3.676,0,0,0-2.383.692l-.136.11.154,18.851L137.852,11.343a2.81,2.81,0,0,0-2.376-1.3,6.85,6.85,0,0,0-2.536.436l-.221.094V36.81c0,1.615.764,2.434,2.272,2.434a5.3,5.3,0,0,0,2.814-.634l.109-.109-.23-18.683,12.728,18.09a2.754,2.754,0,0,0,2.411,1.3,5.907,5.907,0,0,0,2.477-.4l.2-.1V12.03c0-1.5-1.4-2.028-2.717-2.028" transform="translate(4.906 0.369)" fill="#fff"/>
        <path d="M113.419,28.483l4-10.916,4.215,10.916Zm4.355-18.442a4.842,4.842,0,0,0-2.818.737l-.116.064-10.12,27.48.164.164a3.174,3.174,0,0,0,2.41.716c1.376,0,2.389-.291,2.86-1.7l1.62-4.513h11.6l1.608,4.136a2.787,2.787,0,0,0,2.945,2.079,2.659,2.659,0,0,0,2.552-1.163l.081-.147-10.051-26.03a2.667,2.667,0,0,0-2.737-1.82" transform="translate(3.871 0.371)" fill="#fff"/>
        <path d="M169.26,34.577h-3.7V14.91h3.09c6.292,0,9.224,3.254,9.224,10.24,0,6.519-2.657,9.427-8.614,9.427m-.692-24.536h-5.6a4.9,4.9,0,0,0-2.421.458l-.175.106v26.2c0,2.122,1.387,2.393,2.6,2.393h6.458c9.182,0,13.647-4.623,13.647-14.134,0-10.111-4.742-15.027-14.5-15.027" transform="translate(5.929 0.371)" fill="#fff"/>
        <path d="M91.14,23.04H86.263V14.3h5.446c1.685,0,4.512.549,4.512,4.228,0,2.825-1.9,4.512-5.081,4.512m11.684,11.536h-1.487c-1.538,0-2.925-2.487-4.267-4.89-.581-1.041-1.179-2.112-1.816-3.045a8.515,8.515,0,0,0,5.918-8.194c0-5.264-3.28-8.407-8.772-8.407H83.666a5.64,5.64,0,0,0-2.407.411l-.19.1V36.808c0,2.122,1.389,2.393,2.6,2.393a4.962,4.962,0,0,0,2.458-.523l.14-.11V27.259h4.13a31.5,31.5,0,0,1,2.885,5.059c1.745,3.539,3.394,6.883,6.6,6.883,2.218,0,3.491-1.006,3.491-2.759a2.886,2.886,0,0,0-.434-1.714Z" transform="translate(2.997 0.371)" fill="#fff"/>
        <path d="M52.969,52.506A42.635,42.635,0,0,0,35.684,50.3,42.632,42.632,0,0,0,44.6,35.3a42.46,42.46,0,0,0-2-32.65L41.31,0,36,2.589,37.3,5.244a36.585,36.585,0,0,1,1.72,28.137A36.589,36.589,0,0,1,20.336,54.5l-.017.007A42.354,42.354,0,0,0,.859,73.737L0,75.452H6.654A36.458,36.458,0,0,1,22.9,59.815l.017-.007A36.82,36.82,0,0,1,71.477,75.452h6.612l-.62-1.271a42.462,42.462,0,0,0-24.5-21.675" transform="translate(0 -0.001)" fill="#fff"/>
      </g>
    </g>
  </g>
</svg>
